<svg width="102" height="38" viewBox="0 0 102 38" fill="none" xmlns="http://www.w3.org/2000/svg">
<path fill-rule="evenodd" clip-rule="evenodd" d="M95.6469 10.4148C98.0724 10.6619 99.3446 10.79 100.827 11.9888C102.356 13.3157 102.603 16.2714 100.278 17.7905C98.173 19.1448 95.537 19.3095 93.1024 19.3736C89.5328 19.3736 84.4164 18.6781 84.4164 14.1759H87.7022C87.8029 15.2374 88.4253 15.8688 89.5053 16.1799C90.7867 16.5368 92.0224 16.5826 93.2397 16.5917C96.013 16.5917 98.7131 16.1342 98.5392 14.5694C98.3836 13.1418 96.4889 13.0045 95.5919 12.9313C95.5919 12.9313 95.537 12.9313 95.5096 12.9313C94.9329 12.8856 92.2603 12.7209 92.2603 12.7209C90.5854 12.6019 89.368 12.4189 88.6175 12.2816C86.9975 11.9796 86.2012 11.3574 85.6795 10.8998C84.3431 9.64614 84.1326 6.8368 86.2652 5.42755C88.169 4.19217 90.5671 4.05491 92.7729 4C96.0954 4.0366 101.267 4.64057 101.569 8.82255H98.2463C97.9534 6.70868 93.258 6.63547 90.8599 6.8734C90.8599 6.8734 87.9677 6.99236 87.9677 8.41991C87.9677 8.41991 87.7571 9.71935 90.622 9.98472C90.9423 10.0122 95.1252 10.3599 95.418 10.3874L95.6377 10.4057L95.6469 10.4148ZM21.5091 4.21962H37.014V7.04727H24.5478V10.2684H35.6685V13.096H24.5478V16.3355H37.014V19.1631H21.5091V4.21962ZM58.5231 4.21962H61.5618V19.154H58.5231V4.21962ZM53.3609 11.3848C54.1755 10.8449 54.8528 9.82001 54.8528 8.2918C54.8528 4.82359 51.5212 4.24708 48.9309 4.22877L40.1259 4.21962V19.154H49.8462C54.3311 19.154 55.7864 17.4428 55.7864 14.9262C55.7864 12.7666 54.1755 11.6227 53.3609 11.3848ZM43.1555 7.04727H49.4618C50.853 7.04727 51.9239 7.54142 51.9239 8.7951C51.9239 10.0488 50.6974 10.3233 49.8737 10.3325H43.1555V7.04727ZM49.8737 16.3263H43.1555V12.9679H49.8279C51.1367 12.9679 52.6287 13.2425 52.6287 14.67C52.6287 16.0976 51.274 16.3172 49.8645 16.3172L49.8737 16.3263ZM68.1701 4.21962H64.9575V11.8241C64.9575 13.9288 66.6508 15.036 68.5271 15.6217C68.6095 16.0518 68.7101 16.4636 68.8291 16.8113C69.3692 18.3578 70.797 19.337 73.4696 19.337C76.1422 19.337 77.5701 18.3578 78.1101 16.8113C78.2291 16.4636 78.3298 16.0518 78.4121 15.6217C80.2885 15.036 81.9817 13.9288 81.9817 11.8241V4.21962H78.7691V11.4489C78.7691 12.364 78.6959 14.1393 78.4121 15.6126C78.4121 15.6126 76.6456 16.244 73.4605 16.244C70.2753 16.244 68.5271 15.6126 68.5271 15.6126C68.2434 14.1393 68.1701 12.364 68.1701 11.4489V4.21962ZM18.1226 13.3065C18.1226 16.7747 15.1021 16.9577 15.1021 16.9577V4.22877H18.1226V13.3065ZM0.00915281 10.0762V19.154H3.02958V6.425C3.02958 6.425 4.84184 6.17793 5.80288 8.39246L9.6013 17.1591C10.2237 18.5775 11.2397 19.3736 12.6766 19.3736C14.1136 19.3736 15.1021 18.2023 15.1021 16.9577C15.1021 16.9577 13.2899 17.2048 12.3288 14.9903L8.52127 6.22368C7.90803 4.80528 6.89207 4.00915 5.44592 4.00915C3.99978 4.00915 3.02043 5.18047 3.02043 6.425C3.02043 6.425 0 6.60802 0 10.0762H0.00915281Z" fill="#31343C"/>
<path d="M95.8944 22.8945H46.2221C42.8505 22.8945 40.1172 25.6272 40.1172 28.9982V29.0074C40.1172 32.3783 42.8505 35.1111 46.2221 35.1111H95.8944C99.266 35.1111 101.999 32.3783 101.999 29.0074V28.9982C101.999 25.6272 99.266 22.8945 95.8944 22.8945Z" fill="#31343C"/>
<path fill-rule="evenodd" clip-rule="evenodd" d="M58.4324 30.1682V30.0767H59.6589V30.1682C59.6589 30.8912 60.3454 31.2663 61.7 31.2663C62.8807 31.2663 63.5214 30.9827 63.5214 30.4611V30.3879C63.5214 29.9395 63.2194 29.7473 62.24 29.61L60.684 29.3904C59.2745 29.1982 58.5514 28.6217 58.5514 27.6609V27.5602C58.5514 26.3797 59.6315 25.6751 61.5444 25.6751C63.5489 25.6751 64.6289 26.4163 64.6289 27.789V27.8805H63.4024V27.789C63.4024 27.1118 62.78 26.7732 61.5444 26.7732C60.4278 26.7732 59.8054 27.0386 59.8054 27.5328V27.6151C59.8054 28.0086 60.1074 28.1825 60.9769 28.3014L62.5421 28.5211C64.0706 28.7315 64.7753 29.2897 64.7753 30.3329V30.4336C64.7753 31.6507 63.6587 32.3736 61.6451 32.3736C59.5308 32.3736 58.4324 31.6141 58.4324 30.1682ZM47.2568 25.8104L44.3096 32.0697V32.2527H45.5543L46.2225 30.7794H49.6457L50.3138 32.2527H51.5586V32.0697L48.6114 25.8104H47.2568ZM47.9341 27.0458L49.1331 29.6813H46.7351L47.9341 27.0458ZM53.6552 25.8104H52.4287V32.2618H53.6552V25.8104ZM65.0869 26.9085H67.7413V32.2527H68.9677V26.9085H71.622V25.8104H65.0869V26.9085ZM72.3447 29.4159V25.8104H73.5712V29.4342C73.5712 30.5689 74.276 31.2369 75.5025 31.2369C76.7289 31.2369 77.4429 30.5689 77.4429 29.4342V25.8104H78.6693V29.4159C78.6693 31.2095 77.4062 32.3717 75.5025 32.3717C73.5987 32.3717 72.3447 31.1912 72.3447 29.4159ZM83.2188 25.8104H80.0977V32.2618H83.2188C85.5985 32.2618 86.8341 31.182 86.8341 29.1048V28.9767C86.8341 26.8994 85.5893 25.8104 83.2188 25.8104ZM85.5893 28.9675V29.1231C85.5893 30.4957 84.8114 31.1546 83.2188 31.1546H81.3333V26.9085H83.2096C84.793 26.9085 85.5893 27.604 85.5893 28.9675ZM88.0966 25.8104H89.3231V32.2618H88.0966V25.8104ZM90.5859 28.9805V29.0903C90.5859 31.0944 92.0595 32.3755 94.3477 32.3755C96.6359 32.3755 98.1004 31.0944 98.1004 29.0903V28.9805C98.1004 26.9764 96.6359 25.6862 94.3477 25.6862C92.0595 25.6862 90.5859 26.9764 90.5859 28.9805ZM96.8556 28.9713V29.1086C96.8556 30.4538 95.9495 31.2316 94.3477 31.2316C92.746 31.2316 91.8307 30.4538 91.8307 29.1086V28.9713C91.8307 27.6262 92.746 26.83 94.3477 26.83C95.9495 26.83 96.8556 27.6262 96.8556 28.9713Z" fill="white" fill-opacity="0.95"/>
</svg>
