<svg width="102" height="38" viewBox="0 0 102 38" fill="none" xmlns="http://www.w3.org/2000/svg">
<path fill-rule="evenodd" clip-rule="evenodd" d="M95.6469 10.8593C98.0724 11.1064 99.3446 11.2345 100.827 12.4333C102.356 13.7602 102.603 16.7159 100.278 18.235C98.173 19.5893 95.537 19.7541 93.1024 19.8181C89.5328 19.8181 84.4164 19.1226 84.4164 14.6204H87.7022C87.8029 15.6819 88.4253 16.3133 89.5053 16.6244C90.7867 16.9813 92.0224 17.0271 93.2397 17.0362C96.013 17.0362 98.7131 16.5787 98.5392 15.0139C98.3836 13.5863 96.4889 13.4491 95.5919 13.3758C95.5919 13.3758 95.537 13.3758 95.5096 13.3758C94.9329 13.3301 92.2603 13.1654 92.2603 13.1654C90.5854 13.0464 89.368 12.8634 88.6175 12.7261C86.9975 12.4242 86.2012 11.8019 85.6795 11.3443C84.3431 10.0907 84.1326 7.28131 86.2652 5.87207C88.169 4.63669 90.5671 4.49942 92.7729 4.44452C96.0954 4.48112 101.267 5.08509 101.569 9.26707H98.2463C97.9534 7.1532 93.258 7.07999 90.8599 7.31792C90.8599 7.31792 87.9677 7.43688 87.9677 8.86443C87.9677 8.86443 87.7571 10.1639 90.622 10.4292C90.9423 10.4567 95.1252 10.8044 95.418 10.8319L95.6377 10.8502L95.6469 10.8593ZM21.5091 4.66414H37.014V7.49179H24.5478V10.7129H35.6685V13.5406H24.5478V16.78H37.014V19.6076H21.5091V4.66414ZM58.5231 4.66414H61.5618V19.5985H58.5231V4.66414ZM53.3609 11.8293C54.1755 11.2894 54.8528 10.2645 54.8528 8.73632C54.8528 5.2681 51.5212 4.69159 48.9309 4.67329L40.1259 4.66414V19.5985H49.8462C54.3311 19.5985 55.7864 17.8873 55.7864 15.3708C55.7864 13.2111 54.1755 12.0673 53.3609 11.8293ZM43.1555 7.49179H49.4618C50.853 7.49179 51.9239 7.98594 51.9239 9.23962C51.9239 10.4933 50.6974 10.7678 49.8737 10.777H43.1555V7.49179ZM49.8737 16.7709H43.1555V13.4125H49.8279C51.1367 13.4125 52.6287 13.687 52.6287 15.1145C52.6287 16.5421 51.274 16.7617 49.8645 16.7617L49.8737 16.7709ZM68.1701 4.66414H64.9575V12.2686C64.9575 14.3733 66.6508 15.4806 68.5271 16.0662C68.6095 16.4963 68.7102 16.9081 68.8291 17.2559C69.3691 18.8024 70.797 19.7815 73.4696 19.7815C76.1422 19.7815 77.5701 18.8024 78.1101 17.2559C78.2291 16.9081 78.3298 16.4963 78.4121 16.0662C80.2885 15.4806 81.9817 14.3733 81.9817 12.2686V4.66414H78.7691V11.8934C78.7691 12.8085 78.6959 14.5838 78.4121 16.0571C78.4121 16.0571 76.6456 16.6885 73.4605 16.6885C70.2753 16.6885 68.5271 16.0571 68.5271 16.0571C68.2434 14.5838 68.1701 12.8085 68.1701 11.8934V4.66414ZM18.1226 13.751C18.1226 17.2192 15.1021 17.4023 15.1021 17.4023V4.67329H18.1226V13.751ZM0.00915281 10.5208V19.5985H3.02958V6.86952C3.02958 6.86952 4.84184 6.62245 5.80288 8.83698L9.6013 17.6036C10.2237 19.022 11.2397 19.8181 12.6766 19.8181C14.1136 19.8181 15.1021 18.6468 15.1021 17.4023C15.1021 17.4023 13.2899 17.6493 12.3288 15.4348L8.52127 6.6682C7.90803 5.2498 6.89207 4.45367 5.44592 4.45367C3.99978 4.45367 3.02043 5.62499 3.02043 6.86952C3.02043 6.86952 0 7.05254 0 10.5208H0.00915281Z" fill="white" fill-opacity="0.95"/>
<path d="M95.8944 23.3391H46.2221C42.8505 23.3391 40.1172 26.0718 40.1172 29.4427V29.4519C40.1172 32.8229 42.8505 35.5556 46.2221 35.5556H95.8944C99.266 35.5556 101.999 32.8229 101.999 29.4519V29.4427C101.999 26.0718 99.266 23.3391 95.8944 23.3391Z" fill="white" fill-opacity="0.95"/>
<path fill-rule="evenodd" clip-rule="evenodd" d="M58.4324 30.6127V30.5212H59.6589V30.6127C59.6589 31.3357 60.3454 31.7109 61.7 31.7109C62.8807 31.7109 63.5214 31.4272 63.5214 30.9056V30.8324C63.5214 30.384 63.2194 30.1918 62.24 30.0545L60.684 29.8349C59.2745 29.6427 58.5514 29.0662 58.5514 28.1054V28.0047C58.5514 26.8243 59.6315 26.1196 61.5444 26.1196C63.5489 26.1196 64.6289 26.8609 64.6289 28.2335V28.325H63.4024V28.2335C63.4024 27.5563 62.78 27.2177 61.5444 27.2177C60.4278 27.2177 59.8054 27.4831 59.8054 27.9773V28.0596C59.8054 28.4531 60.1074 28.627 60.9769 28.746L62.5421 28.9656C64.0706 29.176 64.7753 29.7343 64.7753 30.7775V30.8781C64.7753 32.0952 63.6587 32.8181 61.6451 32.8181C59.5308 32.8181 58.4324 32.0586 58.4324 30.6127ZM47.2568 26.2549L44.3096 32.5142V32.6972H45.5543L46.2225 31.2239H49.6457L50.3138 32.6972H51.5586V32.5142L48.6114 26.2549H47.2568ZM47.9341 27.4903L49.1331 30.1258H46.7351L47.9341 27.4903ZM53.6552 26.2549H52.4287V32.7064H53.6552V26.2549ZM65.0869 27.3531H67.7413V32.6972H68.9677V27.3531H71.622V26.2549H65.0869V27.3531ZM72.3447 29.8604V26.2549H73.5712V29.8787C73.5712 31.0134 74.276 31.6815 75.5025 31.6815C76.7289 31.6815 77.4429 31.0134 77.4429 29.8787V26.2549H78.6693V29.8604C78.6693 31.654 77.4062 32.8162 75.5025 32.8162C73.5987 32.8162 72.3447 31.6357 72.3447 29.8604ZM83.2188 26.2549H80.0977V32.7064H83.2188C85.5985 32.7064 86.8341 31.6266 86.8341 29.5493V29.4212C86.8341 27.3439 85.5893 26.2549 83.2188 26.2549ZM85.5893 29.412V29.5676C85.5893 30.9402 84.8114 31.5991 83.2188 31.5991H81.3333V27.3531H83.2096C84.793 27.3531 85.5893 28.0485 85.5893 29.412ZM88.0966 26.2549H89.3231V32.7064H88.0966V26.2549ZM90.5859 29.425V29.5348C90.5859 31.5389 92.0595 32.82 94.3477 32.82C96.6359 32.82 98.1004 31.5389 98.1004 29.5348V29.425C98.1004 27.421 96.6359 26.1307 94.3477 26.1307C92.0595 26.1307 90.5859 27.421 90.5859 29.425ZM96.8556 29.4159V29.5531C96.8556 30.8983 95.9495 31.6762 94.3477 31.6762C92.746 31.6762 91.8307 30.8983 91.8307 29.5531V29.4159C91.8307 28.0707 92.746 27.2745 94.3477 27.2745C95.9495 27.2745 96.8556 28.0707 96.8556 29.4159Z" fill="#31343C"/>
</svg>
